<svg xmlns="http://www.w3.org/2000/svg" xmlns:xlink="http://www.w3.org/1999/xlink" fill="none" version="1.1" width="16" height="16" viewBox="0 0 16 16"><defs><clipPath id="master_svg0_3040_025696"><rect x="16" y="0" width="16" height="16" rx="0"/></clipPath></defs><g transform="matrix(0,1,-1,0,16,-16)" clip-path="url(#master_svg0_3040_025696)"><g><path d="M26.667,11.6670078125C26.851,11.6670078125,27,11.8160078125,27,12.0000078125L27,13.3330078125C27,13.5170078125,26.85,13.6670078125,26.667,13.6670078125L25.333,13.6670078125C25.148699999999998,13.6670078125,24.99945,13.5173078125,25,13.3330078125L25,12.0000078125C25,11.8160078125,25.15,11.6670078125,25.333,11.6670078125L26.667,11.6670078125ZM22.667,11.6670078125C22.851,11.6670078125,23,11.8160078125,23,12.0000078125L23,13.3330078125C23,13.5170078125,22.85,13.6670078125,22.667,13.6670078125L21.333003,13.6670078125C21.1487,13.6670078125,20.999448853,13.5173078125,21.00000274658,13.3330078125L21.00000274658,12.0000078125C21.00000274658,11.8160078125,21.150003,11.6670078125,21.333003,11.6670078125L22.667,11.6670078125ZM25.333,7.0000078125L26.667,7.0000078125C26.851,7.0000078125,27,7.1500078125,27,7.3330078125L27,8.6670078125C27,8.8510078125,26.85,9.0000078125,26.667,9.0000078125L25.333,9.0000078125C25.14909,9.0000078125,25,8.8509178125,25,8.6670078125L25,7.3330078125C25,7.1500078125,25.15,7.0000078125,25.333,7.0000078125ZM21.333003,7.0000078125L22.667,7.0000078125C22.85,7.0000078125,23,7.1500078125,23,7.3330078125L23,8.6670078125C23,8.8500078125,22.85,9.0000078125,22.667,9.0000078125L21.333003,9.0000078125C21.149091,9.0000078125,21.00000244141,8.8509178125,21.00000274658,8.6670078125L21.00000274658,7.3330078125C21.00000274658,7.1500078125,21.150003,7.0000078125,21.333003,7.0000078125ZM26.667,2.3330078125C26.851,2.3330078125,27,2.4830078125,27,2.6670078125L27,4.0000078125C27,4.1840078125,26.85,4.3330078125,26.667,4.3330078125L25.333,4.3330078125C25.14909,4.3330078125,25,4.1839178125,25,4.0000078125L25,2.6670078125C25,2.4830078125,25.15,2.333008117676,25.333,2.333008117676L26.667,2.3330078125ZM22.667,2.3330078125C22.851,2.3330078125,23,2.4830078125,23,2.6670078125L23,4.0000078125C23,4.1840078125,22.85,4.3330078125,22.667,4.3330078125L21.333003,4.3330078125C21.149092,4.3330078125,21.00000244141,4.1839178125,21.00000274658,4.0000078125L21.00000274658,2.6670078125C21.00000274658,2.4830078125,21.150003,2.333008117676,21.333003,2.333008117676L22.667,2.3330078125Z" fill="#86909C" fill-opacity="1"/></g></g></svg>