<svg xmlns="http://www.w3.org/2000/svg" xmlns:xlink="http://www.w3.org/1999/xlink" fill="none" version="1.1" width="16" height="16" viewBox="0 0 16 16"><g transform="matrix(1,0,0,-1,0,32)"><g></g><g><path d="M2.60302734375,28.1640265625C2.60302734375,28.1640265625,13.39692734375,28.1640265625,13.39692734375,28.1640265625C13.39692734375,28.1640265625,13.39692734375,29.3633265625,13.39692734375,29.3633265625C13.39692734375,29.3633265625,2.60302734375,29.3633265625,2.60302734375,29.3633265625C2.60302734375,29.3633265625,2.60302734375,28.1640265625,2.60302734375,28.1640265625C2.60302734375,28.1640265625,2.60302734375,28.1640265625,2.60302734375,28.1640265625ZM8.59966734375,24.6691665625C8.59966734375,24.6691665625,12.24021734375,21.0280065625,12.24021734375,21.0280065625C12.24021734375,21.0280065625,13.08812734375,21.8759365625,13.08812734375,21.8759365625C13.08812734375,21.8759365625,7.99999734375,26.9646765625,7.99999734375,26.9646765625C7.99999734375,26.9646765625,2.91185334375,21.8765365625,2.91185334375,21.8765365625C2.91185334375,21.8765365625,3.7597773437499997,21.0280065625,3.7597773437499997,21.0280065625C3.7597773437499997,21.0280065625,7.40033734375,24.6679765625,7.40033734375,24.6679765625C7.40033734375,24.6679765625,7.40033734375,17.9697265625,7.40033734375,17.9697265625C7.40033734375,17.9697265625,8.59966734375,17.9697265625,8.59966734375,17.9697265625C8.59966734375,17.9697265625,8.59966734375,24.6691665625,8.59966734375,24.6691665625C8.59966734375,24.6691665625,8.59966734375,24.6691665625,8.59966734375,24.6691665625Z" fill="#86909C" fill-opacity="1"/></g></g></svg>